<svg id="Layer_1" data-name="Layer 1" xmlns="http://www.w3.org/2000/svg" viewBox="0 0 416.85 335.93"><defs><style>.cls-1{fill:#f8cc66;}</style></defs><title>Artboard 1</title><path class="cls-1" d="M229,202.47H134a4.5,4.5,0,0,0,0,9h95a4.5,4.5,0,0,0,0-9Z"/><path class="cls-1" d="M229,180.47H134a4.5,4.5,0,0,0,0,9h95a4.5,4.5,0,0,0,0-9Z"/><path class="cls-1" d="M134,167.47h36a4.5,4.5,0,0,0,0-9H134a4.5,4.5,0,0,0,0,9Z"/><path class="cls-1" d="M285.38,101C280,95.68,272.3,95,265.47,95V80.47c0-10.88-8-16.76-15.48-16.76a14.1,14.1,0,0,0-10.58,4.69c-2,2.24-4.44,6.32-4.44,13.07,0,15.09-8.66,18.89-16.05,20.61a7.51,7.51,0,0,0-7.45-6.61h-15A7.51,7.51,0,0,0,189,103v20.5H129.64c-14.24,0-21.17,6.54-21.17,20v104A4.5,4.5,0,0,0,113,252a4.57,4.57,0,0,0,2.54-.78L136.36,237H237.47c4.08,0,16.5,0,16.5-13V162h19.5c9.82,0,17.5-7.91,17.5-18V117C291,110.09,289.09,104.72,285.38,101ZM198,104.47h12v41.47h0v8H198ZM245,224c0,2.49,0,4-7.5,4H135a4.5,4.5,0,0,0-2.53.78l-15,10.2V143.47c0-9.36,3.93-11,12.17-11H189v23a7.52,7.52,0,0,0,7.5,7.5h15a7.52,7.52,0,0,0,7.39-6.22A29.12,29.12,0,0,0,235,162h10Zm37-80c0,5.13-3.65,9-8.5,9H235a20.61,20.61,0,0,1-16-8.46V111.27c8.78-1.79,25-6.56,25-29.8,0-3.07.73-5.5,2.11-7A5.14,5.14,0,0,1,250,72.71c3.22,0,6.48,2.67,6.48,7.76v19A4.51,4.51,0,0,0,261,104h1.56c6.09,0,13,0,16.5,3.45,2,2,2.94,5.1,2.94,9.56Z"/></svg>