<svg id="Layer_1" data-name="Layer 1" xmlns="http://www.w3.org/2000/svg" viewBox="0 0 416.85 335.93"><defs><style>.cls-1{fill:#f8cc66;}</style></defs><title>Artboard 1 copy</title><path class="cls-1" d="M274.84,138.3H264.16V121.47c0-26.09-19.32-52.5-56.25-52.5-41.73,0-52.75,30.85-52.75,47.16V138.3h-13a4.5,4.5,0,0,0-4.5,4.49c0,.9-.16,90.09-.16,97.51,0,10,10,16.67,16.66,16.67H264.51a14.69,14.69,0,0,0,14.83-14.84V142.8A4.5,4.5,0,0,0,274.84,138.3ZM164.16,116.13C164.16,102,173.37,78,207.91,78c15.16,0,27.67,5,36.19,14.45a43.87,43.87,0,0,1,11.06,29.05V138.3h-7V126.6c0-19.62-13.91-40.46-39.68-40.46-27.5,0-37.26,19.61-37.26,36.41V138.3h-7Zm76,22.17H179.19V122.55c0-13.74,7.69-28.41,29.26-28.41,12.74,0,31.68,8.64,31.68,32.46Zm30.21,103.83a5.68,5.68,0,0,1-5.83,5.84H154.17c-1.91,0-7.66-3.1-7.66-7.67,0-6.44.12-74.69.16-93H270.34Z"/><path class="cls-1" d="M209.66,170.44a16.52,16.52,0,0,0-11.55,28.34l-3,17.73c-.37,2.15-.68,6.11,1.3,8.43a4.87,4.87,0,0,0,3.68,1.72h0l19.06-.18a4.92,4.92,0,0,0,3.66-1.74c2-2.31,1.71-6.23,1.39-8.36l-2.72-17.95A16.34,16.34,0,0,0,226.18,187,16.55,16.55,0,0,0,209.66,170.44Zm3.1,27,3.07,20.24c0,.11,0,.21,0,.31l-12.36.12c0-.05,0-.11,0-.17l3.39-20.14a4.24,4.24,0,0,0-1.79-4.22,8,8,0,1,1,9.29-.2A4.28,4.28,0,0,0,212.76,197.42Z"/></svg>